<svg width="0" height="0"><symbol id="star" xmlns="http://www.w3.org/2000/svg"><path fill-rule="evenodd" clip-rule="evenodd" d="M10.17 2.202c.694-1.603 2.966-1.603 3.66 0l2.102 4.846 5.26.501c1.738.166 2.44 2.327 1.13 3.483l-3.96 3.496 1.15 5.156c.379 1.705-1.46 3.04-2.963 2.152L12 19.151l-4.549 2.685c-1.504.888-3.342-.447-2.962-2.152l1.148-5.156-3.96-3.496C.368 9.876 1.07 7.715 2.81 7.549l5.259-.5 2.101-4.847zm3.932 5.64L12 2.996 9.898 7.841a1.996 1.996 0 01-1.641 1.193l-5.259.5 3.96 3.497c.545.481.785 1.22.627 1.93l-1.148 5.156 4.548-2.686a1.996 1.996 0 012.03 0l4.548 2.686-1.148-5.156a1.996 1.996 0 01.627-1.93l3.96-3.496-5.259-.501a1.996 1.996 0 01-1.641-1.193z"/></symbol></svg>